<svg width="1400" height="320" viewBox="0 0 1400 320" fill="none" xmlns="http://www.w3.org/2000/svg">
<rect width="1400" height="320" fill="#BF1901"/>
<path d="M966.891 101V56.7928H988.392C993.839 56.8374 997.858 57.8868 1000.45 59.9409C1003.04 61.9503 1004.33 64.8751 1004.33 68.7153C1004.33 71.2159 1003.6 73.3816 1002.12 75.2125C1000.65 76.9986 998.394 78.1373 995.358 78.6285V78.6954C998.751 79.142 1001.27 80.3253 1002.93 82.2454C1004.62 84.1209 1005.47 86.3982 1005.47 89.0774C1005.47 92.873 1004.13 95.8202 1001.45 97.9189C998.774 99.973 994.755 101 989.396 101H966.891ZM978.01 92.8953H987.454C989.553 92.8953 991.115 92.4711 992.143 91.6227C993.17 90.7743 993.683 89.5463 993.683 87.9388C993.683 86.3759 993.17 85.1926 992.143 84.3888C991.115 83.5404 989.553 83.1162 987.454 83.1162H978.01V92.8953ZM978.01 74.8776H986.382C990.49 74.8776 992.544 73.27 992.544 70.0549C992.544 66.8399 990.49 65.2323 986.382 65.2323H978.01V74.8776ZM1021.18 56.7928V101H1009.66V56.7928H1021.18ZM1046.26 101.67C1042.33 101.67 1038.82 100.799 1035.74 99.0576C1032.71 97.3161 1030.34 94.7485 1028.64 91.3548C1026.95 87.9611 1026.1 83.8306 1026.1 78.9634C1026.1 74.1854 1026.99 70.0996 1028.78 66.7059C1030.56 63.3122 1033.11 60.7 1036.41 58.8692C1039.76 57.0384 1043.69 56.123 1048.2 56.123C1053.2 56.123 1057.24 57.0384 1060.33 58.8692C1063.41 60.6553 1065.8 63.5132 1067.49 67.4427L1056.84 71.6625C1056.26 69.3851 1055.24 67.7329 1053.76 66.7059C1052.29 65.6789 1050.46 65.1654 1048.27 65.1654C1046.08 65.1654 1044.21 65.7012 1042.64 66.7729C1041.08 67.7999 1039.9 69.3405 1039.09 71.3946C1038.29 73.404 1037.89 75.9046 1037.89 78.8964C1037.89 82.0222 1038.29 84.6344 1039.09 86.7331C1039.94 88.8319 1041.17 90.3947 1042.78 91.4218C1044.43 92.4042 1046.46 92.8953 1048.87 92.8953C1050.17 92.8953 1051.35 92.7391 1052.42 92.4265C1053.49 92.1139 1054.43 91.6674 1055.24 91.0869C1056.04 90.4617 1056.66 89.7026 1057.11 88.8095C1057.56 87.8718 1057.78 86.7778 1057.78 85.5275V84.8577H1047.67V77.1549H1067.56V101H1059.72L1058.85 90.618L1060.73 92.2255C1059.79 95.262 1058.09 97.6063 1055.64 99.2585C1053.23 100.866 1050.1 101.67 1046.26 101.67ZM1106.8 56.123C1110.9 56.123 1114.52 56.7705 1117.65 58.0654C1120.82 59.3157 1123.56 61.1688 1125.89 63.6248L1120.33 71.0597C1118.41 69.0502 1116.33 67.5543 1114.1 66.572C1111.91 65.5449 1109.41 65.0314 1106.6 65.0314C1104.94 65.0314 1103.6 65.21 1102.58 65.5672C1101.55 65.9245 1100.81 66.4157 1100.37 67.0408C1099.92 67.666 1099.7 68.3804 1099.7 69.1842C1099.7 70.1219 1100.12 70.9257 1100.97 71.5955C1101.86 72.2207 1103.29 72.7565 1105.26 73.203L1112.69 74.8776C1117.11 75.9046 1120.35 77.4005 1122.4 79.3653C1124.46 81.33 1125.48 83.9423 1125.48 87.202C1125.48 90.3278 1124.68 92.9847 1123.07 95.1727C1121.46 97.3161 1119.25 98.9459 1116.44 100.062C1113.63 101.134 1110.41 101.67 1106.8 101.67C1103.85 101.67 1101.04 101.357 1098.36 100.732C1095.68 100.062 1093.27 99.1245 1091.12 97.9189C1088.98 96.7132 1087.17 95.329 1085.7 93.7661L1091.26 86.0633C1092.37 87.3583 1093.73 88.5193 1095.34 89.5463C1096.99 90.5287 1098.78 91.3101 1100.7 91.8906C1102.67 92.4711 1104.65 92.7614 1106.66 92.7614C1108.23 92.7614 1109.52 92.6051 1110.55 92.2925C1111.62 91.9799 1112.4 91.5111 1112.89 90.8859C1113.38 90.2608 1113.63 89.524 1113.63 88.6756C1113.63 87.7378 1113.29 86.9564 1112.62 86.3312C1111.95 85.6614 1110.68 85.1033 1108.81 84.6567L1100.63 82.8482C1098.13 82.2677 1095.9 81.5086 1093.94 80.5709C1092.02 79.5885 1090.5 78.2936 1089.38 76.686C1088.26 75.0338 1087.71 72.9798 1087.71 70.5238C1087.71 67.7553 1088.47 65.2993 1089.98 63.1559C1091.5 60.9679 1093.69 59.2487 1096.55 57.9984C1099.41 56.7481 1102.82 56.123 1106.8 56.123ZM1141.19 92.0916H1163.36V101H1129.67V56.7928H1141.19V92.0916ZM1207.14 101H1195.28L1192.2 91.0199H1177.07L1173.92 101H1162.33L1177.87 56.7928H1191.67L1207.14 101ZM1179.21 83.1832H1190.06L1184.63 65.2993L1179.21 83.1832ZM1209.27 101V56.7928H1230.77C1236.22 56.8374 1240.23 57.8868 1242.82 59.9409C1245.41 61.9503 1246.71 64.8751 1246.71 68.7153C1246.71 71.2159 1245.97 73.3816 1244.5 75.2125C1243.02 76.9986 1240.77 78.1373 1237.73 78.6285V78.6954C1241.13 79.142 1243.65 80.3253 1245.3 82.2454C1247 84.1209 1247.85 86.3982 1247.85 89.0774C1247.85 92.873 1246.51 95.8202 1243.83 97.9189C1241.15 99.973 1237.13 101 1231.77 101H1209.27ZM1220.39 92.8953H1229.83C1231.93 92.8953 1233.49 92.4711 1234.52 91.6227C1235.55 90.7743 1236.06 89.5463 1236.06 87.9388C1236.06 86.3759 1235.55 85.1926 1234.52 84.3888C1233.49 83.5404 1231.93 83.1162 1229.83 83.1162H1220.39V92.8953ZM1220.39 74.8776H1228.76C1232.87 74.8776 1234.92 73.27 1234.92 70.0549C1234.92 66.8399 1232.87 65.2323 1228.76 65.2323H1220.39V74.8776ZM1269.32 56.123C1273.43 56.123 1277.05 56.7705 1280.17 58.0654C1283.34 59.3157 1286.09 61.1688 1288.41 63.6248L1282.85 71.0597C1280.93 69.0502 1278.85 67.5543 1276.62 66.572C1274.43 65.5449 1271.93 65.0314 1269.12 65.0314C1267.47 65.0314 1266.13 65.21 1265.1 65.5672C1264.07 65.9245 1263.34 66.4157 1262.89 67.0408C1262.44 67.666 1262.22 68.3804 1262.22 69.1842C1262.22 70.1219 1262.65 70.9257 1263.49 71.5955C1264.39 72.2207 1265.82 72.7565 1267.78 73.203L1275.22 74.8776C1279.64 75.9046 1282.87 77.4005 1284.93 79.3653C1286.98 81.33 1288.01 83.9423 1288.01 87.202C1288.01 90.3278 1287.2 92.9847 1285.6 95.1727C1283.99 97.3161 1281.78 98.9459 1278.97 100.062C1276.15 101.134 1272.94 101.67 1269.32 101.67C1266.37 101.67 1263.56 101.357 1260.88 100.732C1258.2 100.062 1255.79 99.1245 1253.65 97.9189C1251.5 96.7132 1249.7 95.329 1248.22 93.7661L1253.78 86.0633C1254.9 87.3583 1256.26 88.5193 1257.87 89.5463C1259.52 90.5287 1261.31 91.3101 1263.23 91.8906C1265.19 92.4711 1267.18 92.7614 1269.19 92.7614C1270.75 92.7614 1272.04 92.6051 1273.07 92.2925C1274.14 91.9799 1274.92 91.5111 1275.42 90.8859C1275.91 90.2608 1276.15 89.524 1276.15 88.6756C1276.15 87.7378 1275.82 86.9564 1275.15 86.3312C1274.48 85.6614 1273.21 85.1033 1271.33 84.6567L1263.16 82.8482C1260.66 82.2677 1258.43 81.5086 1256.46 80.5709C1254.54 79.5885 1253.02 78.2936 1251.91 76.686C1250.79 75.0338 1250.23 72.9798 1250.23 70.5238C1250.23 67.7553 1250.99 65.2993 1252.51 63.1559C1254.03 60.9679 1256.22 59.2487 1259.07 57.9984C1261.93 56.7481 1265.35 56.123 1269.32 56.123Z" fill="white"/>
<path d="M934.624 148.083C933.776 150.941 932.436 153.33 930.605 155.25C928.774 157.17 926.609 158.599 924.108 159.537C921.607 160.474 918.861 160.943 915.869 160.943C911.493 160.943 907.698 160.028 904.483 158.197C901.312 156.366 898.856 153.754 897.115 150.36C895.418 146.967 894.57 142.903 894.57 138.17C894.57 133.436 895.418 129.373 897.115 125.979C898.856 122.586 901.312 119.973 904.483 118.143C907.698 116.312 911.449 115.396 915.735 115.396C918.772 115.396 921.518 115.821 923.974 116.669C926.43 117.473 928.506 118.723 930.203 120.42C931.945 122.117 933.217 124.26 934.021 126.85L925.649 130.4C924.889 127.721 923.728 125.823 922.166 124.707C920.603 123.546 918.593 122.965 916.137 122.965C913.726 122.965 911.605 123.546 909.774 124.707C907.988 125.868 906.604 127.587 905.621 129.864C904.639 132.097 904.148 134.865 904.148 138.17C904.148 141.429 904.594 144.198 905.487 146.475C906.425 148.753 907.787 150.472 909.573 151.633C911.359 152.794 913.547 153.374 916.137 153.374C918.549 153.374 920.625 152.727 922.367 151.432C924.153 150.137 925.403 148.172 926.117 145.538L934.624 148.083ZM958.577 115.396C962.953 115.396 966.727 116.312 969.897 118.143C973.068 119.973 975.501 122.586 977.198 125.979C978.939 129.373 979.81 133.436 979.81 138.17C979.81 142.903 978.939 146.967 977.198 150.36C975.501 153.754 973.068 156.366 969.897 158.197C966.727 160.028 962.953 160.943 958.577 160.943C954.201 160.943 950.406 160.028 947.191 158.197C944.02 156.366 941.564 153.754 939.823 150.36C938.126 146.967 937.278 142.903 937.278 138.17C937.278 133.436 938.126 129.373 939.823 125.979C941.564 122.586 944.02 119.973 947.191 118.143C950.406 116.312 954.201 115.396 958.577 115.396ZM958.577 122.965C956.077 122.965 953.956 123.546 952.214 124.707C950.473 125.868 949.133 127.587 948.195 129.864C947.302 132.097 946.856 134.865 946.856 138.17C946.856 141.429 947.302 144.198 948.195 146.475C949.133 148.753 950.473 150.472 952.214 151.633C953.956 152.794 956.077 153.374 958.577 153.374C961.033 153.374 963.132 152.794 964.874 151.633C966.615 150.472 967.932 148.753 968.825 146.475C969.763 144.198 970.232 141.429 970.232 138.17C970.232 134.865 969.763 132.097 968.825 129.864C967.932 127.587 966.615 125.868 964.874 124.707C963.132 123.546 961.033 122.965 958.577 122.965ZM995.364 152.839H1018.67V160.273H986.121V116.066H995.364V152.839ZM1032.58 152.839H1055.89V160.273H1023.33V116.066H1032.58V152.839ZM1060.55 160.273V116.066H1093.7V123.501H1069.79V134.486H1088.61V141.586H1069.79V152.839H1094.64V160.273H1060.55ZM1137.17 148.083C1136.33 150.941 1134.99 153.33 1133.16 155.25C1131.33 157.17 1129.16 158.599 1126.66 159.537C1124.16 160.474 1121.41 160.943 1118.42 160.943C1114.04 160.943 1110.25 160.028 1107.03 158.197C1103.86 156.366 1101.41 153.754 1099.67 150.36C1097.97 146.967 1097.12 142.903 1097.12 138.17C1097.12 133.436 1097.97 129.373 1099.67 125.979C1101.41 122.586 1103.86 119.973 1107.03 118.143C1110.25 116.312 1114 115.396 1118.29 115.396C1121.32 115.396 1124.07 115.821 1126.53 116.669C1128.98 117.473 1131.06 118.723 1132.75 120.42C1134.5 122.117 1135.77 124.26 1136.57 126.85L1128.2 130.4C1127.44 127.721 1126.28 125.823 1124.72 124.707C1123.15 123.546 1121.14 122.965 1118.69 122.965C1116.28 122.965 1114.16 123.546 1112.33 124.707C1110.54 125.868 1109.15 127.587 1108.17 129.864C1107.19 132.097 1106.7 134.865 1106.7 138.17C1106.7 141.429 1107.15 144.198 1108.04 146.475C1108.98 148.753 1110.34 150.472 1112.12 151.633C1113.91 152.794 1116.1 153.374 1118.69 153.374C1121.1 153.374 1123.18 152.727 1124.92 151.432C1126.7 150.137 1127.95 148.172 1128.67 145.538L1137.17 148.083ZM1177 116.066V123.501H1162.2V160.273H1152.96V123.501H1138.09V116.066H1177ZM1190.79 116.066V160.273H1181.54V116.066H1190.79ZM1218.35 115.396C1222.73 115.396 1226.5 116.312 1229.67 118.143C1232.84 119.973 1235.28 122.586 1236.97 125.979C1238.71 129.373 1239.59 133.436 1239.59 138.17C1239.59 142.903 1238.71 146.967 1236.97 150.36C1235.28 153.754 1232.84 156.366 1229.67 158.197C1226.5 160.028 1222.73 160.943 1218.35 160.943C1213.98 160.943 1210.18 160.028 1206.97 158.197C1203.8 156.366 1201.34 153.754 1199.6 150.36C1197.9 146.967 1197.05 142.903 1197.05 138.17C1197.05 133.436 1197.9 129.373 1199.6 125.979C1201.34 122.586 1203.8 119.973 1206.97 118.143C1210.18 116.312 1213.98 115.396 1218.35 115.396ZM1218.35 122.965C1215.85 122.965 1213.73 123.546 1211.99 124.707C1210.25 125.868 1208.91 127.587 1207.97 129.864C1207.08 132.097 1206.63 134.865 1206.63 138.17C1206.63 141.429 1207.08 144.198 1207.97 146.475C1208.91 148.753 1210.25 150.472 1211.99 151.633C1213.73 152.794 1215.85 153.374 1218.35 153.374C1220.81 153.374 1222.91 152.794 1224.65 151.633C1226.39 150.472 1227.71 148.753 1228.6 146.475C1229.54 144.198 1230.01 141.429 1230.01 138.17C1230.01 134.865 1229.54 132.097 1228.6 129.864C1227.71 127.587 1226.39 125.868 1224.65 124.707C1222.91 123.546 1220.81 122.965 1218.35 122.965ZM1283.87 116.066V160.273H1273.29L1257.82 134.285L1254 127.051H1253.93L1254.2 134.687V160.273H1245.9V116.066H1256.41L1271.88 141.988L1275.7 149.289H1275.84L1275.57 141.653V116.066H1283.87Z" fill="white"/>
<path d="M1200.02 175.186C1201.53 175.186 1202.8 175.558 1203.83 176.303C1204.87 177.047 1205.65 178.093 1206.17 179.44C1206.7 180.787 1206.96 182.374 1206.96 184.199C1206.96 186.22 1206.69 187.904 1206.14 189.251C1205.59 190.58 1204.8 191.582 1203.77 192.256C1202.75 192.929 1201.5 193.266 1200.05 193.266C1198.56 193.266 1197.29 192.938 1196.22 192.282C1195.16 191.626 1194.36 190.643 1193.83 189.331L1196.51 188.081C1196.76 188.914 1197.17 189.579 1197.74 190.075C1198.32 190.572 1199.11 190.82 1200.1 190.82C1200.92 190.82 1201.6 190.66 1202.15 190.341C1202.7 190.022 1203.14 189.561 1203.45 188.959C1203.79 188.356 1204.03 187.629 1204.17 186.778C1204.31 185.928 1204.38 184.97 1204.38 183.907C1204.38 183.854 1204.38 183.809 1204.38 183.774C1204.38 183.721 1204.38 183.668 1204.38 183.614H1204.28C1204.08 184.323 1203.73 184.899 1203.21 185.343C1202.72 185.786 1202.15 186.114 1201.51 186.326C1200.88 186.521 1200.24 186.619 1199.6 186.619C1198.46 186.619 1197.45 186.397 1196.57 185.954C1195.7 185.493 1195.02 184.855 1194.52 184.04C1194.02 183.224 1193.78 182.258 1193.78 181.142C1193.78 179.919 1194.02 178.864 1194.52 177.978C1195.03 177.091 1195.75 176.409 1196.67 175.93C1197.61 175.434 1198.73 175.186 1200.02 175.186ZM1200.05 177.685C1198.93 177.685 1198.07 177.987 1197.47 178.589C1196.89 179.192 1196.59 180.034 1196.59 181.115C1196.59 182.072 1196.9 182.826 1197.53 183.375C1198.16 183.907 1199.01 184.173 1200.05 184.173C1200.72 184.173 1201.32 184.04 1201.83 183.774C1202.35 183.49 1202.75 183.109 1203.03 182.631C1203.33 182.152 1203.48 181.594 1203.48 180.956C1203.48 180.282 1203.33 179.706 1203.03 179.227C1202.75 178.731 1202.35 178.35 1201.83 178.084C1201.32 177.818 1200.72 177.685 1200.05 177.685ZM1215.72 193.266C1213.61 193.266 1211.95 192.504 1210.74 190.979C1209.56 189.437 1208.96 187.186 1208.96 184.226C1208.96 181.266 1209.56 179.023 1210.74 177.499C1211.95 175.957 1213.61 175.186 1215.72 175.186C1217.84 175.186 1219.5 175.957 1220.69 177.499C1221.89 179.023 1222.5 181.266 1222.5 184.226C1222.5 187.186 1221.89 189.437 1220.69 190.979C1219.5 192.504 1217.84 193.266 1215.72 193.266ZM1215.72 190.846C1216.57 190.846 1217.28 190.607 1217.84 190.128C1218.43 189.632 1218.86 188.897 1219.15 187.922C1219.45 186.929 1219.6 185.697 1219.6 184.226C1219.6 182.755 1219.45 181.532 1219.15 180.557C1218.86 179.564 1218.43 178.828 1217.84 178.35C1217.28 177.854 1216.57 177.605 1215.72 177.605C1214.87 177.605 1214.15 177.854 1213.56 178.35C1213 178.828 1212.57 179.564 1212.29 180.557C1212 181.532 1211.86 182.755 1211.86 184.226C1211.86 185.697 1212 186.929 1212.29 187.922C1212.57 188.897 1213 189.632 1213.56 190.128C1214.15 190.607 1214.87 190.846 1215.72 190.846ZM1234.08 179.706L1237.83 185.396L1238.36 185.476L1243.76 193H1240.38L1236.47 187.151L1235.86 186.938L1230.65 179.706H1234.08ZM1243.68 179.706L1238.47 186.832L1237.88 186.805L1233.63 193H1230.38L1236.05 185.422L1236.6 185.476L1240.41 179.706H1243.68ZM1255.13 193V180.956C1255.13 180.601 1255.13 180.238 1255.13 179.865C1255.15 179.475 1255.17 179.068 1255.18 178.642C1254.58 179.227 1253.89 179.732 1253.11 180.158C1252.35 180.566 1251.56 180.858 1250.74 181.035L1250.21 178.563C1250.59 178.509 1251.02 178.385 1251.52 178.19C1252.01 177.995 1252.53 177.747 1253.06 177.446C1253.59 177.145 1254.08 176.825 1254.52 176.489C1254.96 176.134 1255.31 175.789 1255.56 175.452H1257.95V193H1255.13ZM1267.48 175.212C1268.67 175.212 1269.69 175.407 1270.56 175.797C1271.45 176.17 1272.13 176.701 1272.61 177.393C1273.09 178.084 1273.33 178.917 1273.33 179.892C1273.33 180.796 1273.11 181.594 1272.66 182.285C1272.24 182.959 1271.61 183.473 1270.77 183.827V183.854C1271.79 184.226 1272.58 184.784 1273.17 185.529C1273.77 186.255 1274.07 187.159 1274.07 188.241C1274.07 189.287 1273.8 190.182 1273.25 190.926C1272.72 191.671 1271.95 192.247 1270.96 192.654C1269.99 193.062 1268.83 193.266 1267.48 193.266C1266.13 193.266 1264.96 193.062 1263.97 192.654C1262.99 192.247 1262.23 191.671 1261.68 190.926C1261.13 190.182 1260.86 189.287 1260.86 188.241C1260.86 187.177 1261.15 186.273 1261.73 185.529C1262.32 184.784 1263.14 184.226 1264.18 183.854V183.827C1263.38 183.49 1262.75 182.985 1262.29 182.312C1261.83 181.62 1261.6 180.814 1261.6 179.892C1261.6 178.917 1261.84 178.084 1262.32 177.393C1262.8 176.701 1263.48 176.17 1264.37 175.797C1265.25 175.407 1266.29 175.212 1267.48 175.212ZM1267.48 177.605C1266.54 177.605 1265.79 177.836 1265.22 178.297C1264.67 178.758 1264.39 179.387 1264.39 180.184C1264.39 180.982 1264.68 181.611 1265.24 182.072C1265.81 182.515 1266.56 182.737 1267.48 182.737C1268.4 182.737 1269.14 182.515 1269.68 182.072C1270.25 181.611 1270.54 180.982 1270.54 180.184C1270.54 179.387 1270.26 178.758 1269.71 178.297C1269.16 177.836 1268.42 177.605 1267.48 177.605ZM1267.48 190.873C1268.26 190.873 1268.92 190.758 1269.47 190.527C1270.02 190.297 1270.45 189.96 1270.75 189.517C1271.05 189.074 1271.2 188.56 1271.2 187.975C1271.2 187.354 1271.04 186.832 1270.72 186.406C1270.42 185.963 1269.99 185.626 1269.45 185.396C1268.9 185.165 1268.24 185.05 1267.48 185.05C1266.73 185.05 1266.08 185.165 1265.51 185.396C1264.94 185.626 1264.5 185.963 1264.18 186.406C1263.88 186.832 1263.73 187.354 1263.73 187.975C1263.73 188.56 1263.88 189.074 1264.18 189.517C1264.48 189.96 1264.92 190.297 1265.48 190.527C1266.05 190.758 1266.72 190.873 1267.48 190.873ZM1282.85 193.266C1280.74 193.266 1279.08 192.504 1277.88 190.979C1276.69 189.437 1276.1 187.186 1276.1 184.226C1276.1 181.266 1276.69 179.023 1277.88 177.499C1279.08 175.957 1280.74 175.186 1282.85 175.186C1284.98 175.186 1286.63 175.957 1287.82 177.499C1289.03 179.023 1289.63 181.266 1289.63 184.226C1289.63 187.186 1289.03 189.437 1287.82 190.979C1286.63 192.504 1284.98 193.266 1282.85 193.266ZM1282.85 190.846C1283.7 190.846 1284.41 190.607 1284.98 190.128C1285.56 189.632 1286 188.897 1286.28 187.922C1286.58 186.929 1286.73 185.697 1286.73 184.226C1286.73 182.755 1286.58 181.532 1286.28 180.557C1286 179.564 1285.56 178.828 1284.98 178.35C1284.41 177.854 1283.7 177.605 1282.85 177.605C1282 177.605 1281.28 177.854 1280.7 178.35C1280.13 178.828 1279.7 179.564 1279.42 180.557C1279.14 181.532 1278.99 182.755 1278.99 184.226C1278.99 185.697 1279.14 186.929 1279.42 187.922C1279.7 188.897 1280.13 189.632 1280.7 190.128C1281.28 190.607 1282 190.846 1282.85 190.846Z" fill="white"/>
<rect x="1117" y="221" width="172" height="48" rx="24" fill="white"/>
<path d="M1167.75 238.94C1168.83 238.94 1169.78 239.126 1170.59 239.498C1171.41 239.87 1172.11 240.422 1172.68 241.154L1171.3 242.756C1170.8 242.132 1170.26 241.676 1169.68 241.388C1169.1 241.088 1168.43 240.938 1167.66 240.938C1167.16 240.938 1166.74 241.004 1166.4 241.136C1166.08 241.268 1165.84 241.442 1165.68 241.658C1165.54 241.874 1165.46 242.114 1165.46 242.378C1165.46 242.702 1165.59 242.978 1165.84 243.206C1166.09 243.422 1166.53 243.602 1167.14 243.746L1169.35 244.25C1170.53 244.514 1171.37 244.91 1171.87 245.438C1172.39 245.954 1172.65 246.626 1172.65 247.454C1172.65 248.234 1172.44 248.906 1172.03 249.47C1171.63 250.022 1171.06 250.448 1170.32 250.748C1169.59 251.036 1168.75 251.18 1167.8 251.18C1166.98 251.18 1166.21 251.084 1165.52 250.892C1164.83 250.688 1164.22 250.412 1163.68 250.064C1163.14 249.716 1162.69 249.314 1162.33 248.858L1163.74 247.184C1164.01 247.568 1164.35 247.91 1164.76 248.21C1165.17 248.51 1165.63 248.75 1166.15 248.93C1166.68 249.098 1167.23 249.182 1167.8 249.182C1168.3 249.182 1168.71 249.128 1169.05 249.02C1169.39 248.9 1169.65 248.738 1169.82 248.534C1170 248.318 1170.09 248.06 1170.09 247.76C1170.09 247.448 1169.98 247.184 1169.77 246.968C1169.56 246.74 1169.18 246.566 1168.61 246.446L1166.2 245.906C1165.51 245.738 1164.91 245.522 1164.4 245.258C1163.91 244.982 1163.53 244.634 1163.27 244.214C1163.02 243.782 1162.89 243.272 1162.89 242.684C1162.89 241.976 1163.08 241.34 1163.47 240.776C1163.85 240.212 1164.4 239.768 1165.12 239.444C1165.85 239.108 1166.73 238.94 1167.75 238.94ZM1173.93 251V238.058H1176.4V243.53C1176.69 242.954 1177.08 242.528 1177.59 242.252C1178.09 241.964 1178.66 241.82 1179.3 241.82C1179.92 241.82 1180.47 241.94 1180.95 242.18C1181.45 242.42 1181.83 242.786 1182.11 243.278C1182.39 243.758 1182.54 244.364 1182.54 245.096V251H1180.07V245.816C1180.07 245.036 1179.92 244.502 1179.62 244.214C1179.32 243.914 1178.94 243.764 1178.47 243.764C1178.12 243.764 1177.79 243.848 1177.46 244.016C1177.15 244.172 1176.89 244.436 1176.69 244.808C1176.5 245.168 1176.4 245.648 1176.4 246.248V251H1173.93ZM1188.37 241.82C1189.28 241.82 1190.08 242.006 1190.77 242.378C1191.46 242.75 1192 243.284 1192.39 243.98C1192.78 244.676 1192.98 245.516 1192.98 246.5C1192.98 247.472 1192.78 248.312 1192.39 249.02C1192 249.716 1191.46 250.25 1190.77 250.622C1190.08 250.994 1189.28 251.18 1188.37 251.18C1187.47 251.18 1186.67 250.994 1185.98 250.622C1185.28 250.25 1184.74 249.716 1184.34 249.02C1183.96 248.312 1183.76 247.472 1183.76 246.5C1183.76 245.516 1183.96 244.676 1184.34 243.98C1184.74 243.284 1185.28 242.75 1185.98 242.378C1186.67 242.006 1187.47 241.82 1188.37 241.82ZM1188.37 243.656C1187.92 243.656 1187.53 243.764 1187.2 243.98C1186.89 244.184 1186.65 244.496 1186.48 244.916C1186.31 245.336 1186.23 245.864 1186.23 246.5C1186.23 247.136 1186.31 247.664 1186.48 248.084C1186.65 248.504 1186.89 248.822 1187.2 249.038C1187.53 249.242 1187.92 249.344 1188.37 249.344C1188.82 249.344 1189.19 249.242 1189.51 249.038C1189.83 248.822 1190.08 248.504 1190.24 248.084C1190.41 247.664 1190.5 247.136 1190.5 246.5C1190.5 245.864 1190.41 245.336 1190.24 244.916C1190.08 244.496 1189.83 244.184 1189.51 243.98C1189.19 243.764 1188.82 243.656 1188.37 243.656ZM1194.23 254.78V242H1196.45L1196.61 244.862L1196.3 244.538C1196.41 244.01 1196.61 243.542 1196.9 243.134C1197.2 242.726 1197.58 242.408 1198.03 242.18C1198.49 241.94 1199 241.82 1199.56 241.82C1200.29 241.82 1200.95 242.006 1201.52 242.378C1202.1 242.75 1202.55 243.284 1202.87 243.98C1203.21 244.664 1203.38 245.498 1203.38 246.482C1203.38 247.466 1203.21 248.312 1202.87 249.02C1202.54 249.716 1202.08 250.25 1201.49 250.622C1200.91 250.994 1200.25 251.18 1199.51 251.18C1198.72 251.18 1198.06 250.958 1197.53 250.514C1197.01 250.07 1196.66 249.512 1196.47 248.84L1196.7 248.462V254.78H1194.23ZM1198.79 249.29C1199.45 249.29 1199.96 249.056 1200.34 248.588C1200.72 248.108 1200.91 247.412 1200.91 246.5C1200.91 245.588 1200.73 244.898 1200.35 244.43C1199.99 243.95 1199.48 243.71 1198.82 243.71C1198.4 243.71 1198.03 243.824 1197.71 244.052C1197.4 244.268 1197.15 244.586 1196.97 245.006C1196.79 245.414 1196.7 245.912 1196.7 246.5C1196.7 247.076 1196.78 247.574 1196.95 247.994C1197.12 248.414 1197.36 248.738 1197.67 248.966C1198 249.182 1198.37 249.29 1198.79 249.29ZM1219.86 239.12V251H1217.01L1212.86 244.016L1211.83 242.072H1211.81L1211.88 244.124V251H1209.65V239.12H1212.48L1216.64 246.086L1217.66 248.048H1217.7L1217.63 245.996V239.12H1219.86ZM1225.91 241.82C1226.83 241.82 1227.62 242.006 1228.31 242.378C1229 242.75 1229.54 243.284 1229.93 243.98C1230.32 244.676 1230.52 245.516 1230.52 246.5C1230.52 247.472 1230.32 248.312 1229.93 249.02C1229.54 249.716 1229 250.25 1228.31 250.622C1227.62 250.994 1226.83 251.18 1225.91 251.18C1225.01 251.18 1224.22 250.994 1223.52 250.622C1222.82 250.25 1222.28 249.716 1221.88 249.02C1221.5 248.312 1221.31 247.472 1221.31 246.5C1221.31 245.516 1221.5 244.676 1221.88 243.98C1222.28 243.284 1222.82 242.75 1223.52 242.378C1224.22 242.006 1225.01 241.82 1225.91 241.82ZM1225.91 243.656C1225.46 243.656 1225.07 243.764 1224.74 243.98C1224.43 244.184 1224.19 244.496 1224.02 244.916C1223.86 245.336 1223.77 245.864 1223.77 246.5C1223.77 247.136 1223.86 247.664 1224.02 248.084C1224.19 248.504 1224.43 248.822 1224.74 249.038C1225.07 249.242 1225.46 249.344 1225.91 249.344C1226.36 249.344 1226.74 249.242 1227.05 249.038C1227.37 248.822 1227.62 248.504 1227.79 248.084C1227.95 247.664 1228.04 247.136 1228.04 246.5C1228.04 245.864 1227.95 245.336 1227.79 244.916C1227.62 244.496 1227.37 244.184 1227.05 243.98C1226.74 243.764 1226.36 243.656 1225.91 243.656ZM1243.14 242H1245.77L1242.89 251H1240.04L1238.08 244.88L1236.19 251H1233.35L1230.47 242H1233.09L1234.89 248.894L1236.89 242H1239.34L1241.36 248.894L1243.14 242Z" fill="#BF1901"/>
</svg>
